<svg width="25.7182" height="20.5714" viewBox="0 0 25.7182 20.5714" fill="none" xmlns="http://www.w3.org/2000/svg">
<path id="vector" d="M11.2077 20.5514L8.75657 19.8402C8.49941 19.7678 8.35476 19.4986 8.42708 19.2415L13.9119 0.348086C13.9842 0.0909239 14.2534 -0.0537298 14.5106 0.0185971L16.9617 0.729811C17.2188 0.802138 17.3635 1.07135 17.2911 1.32852L11.8064 20.2219C11.73 20.4791 11.4648 20.6277 11.2077 20.5514ZM6.62695 16.043L8.37485 14.1786C8.55968 13.9817 8.54763 13.6683 8.3427 13.4875L4.70225 10.285L8.3427 7.08252C8.54763 6.9017 8.5637 6.58829 8.37485 6.3914L6.62695 4.52697C6.44613 4.3341 6.14075 4.32205 5.94386 4.50688L0.153695 9.9314C-0.0512315 10.1202 -0.0512315 10.4457 0.153695 10.6346L5.94386 16.0631C6.14075 16.2479 6.44613 16.2399 6.62695 16.043ZM19.7744 16.0671L25.5645 10.6386C25.7695 10.4497 25.7695 10.1243 25.5645 9.93541L19.7744 4.50286C19.5815 4.32205 19.2761 4.33008 19.0913 4.52295L17.3434 6.38738C17.1585 6.58427 17.1706 6.89769 17.3755 7.0785L21.016 10.285L17.3755 13.4875C17.1706 13.6683 17.1545 13.9817 17.3434 14.1786L19.0913 16.043C19.2721 16.2399 19.5775 16.2479 19.7744 16.0671Z" fill="currentColor"/>
</svg>
