<svg width="28" height="28" viewBox="0 0 28 28" fill="none" xmlns="http://www.w3.org/2000/svg">
<g transform="translate(0.5 0.25)">
<path d="M23.207 5.70703L5.70703 23.207L4.29297 21.793L21.793 4.29297L23.207 5.70703Z" fill="currentColor"/>
<path d="M20.7451 9.58203C22.1747 10.757 23.3035 12.2717 24 14C22.3486 18.0973 18.2727 21 13.5 21C12.2419 21 11.033 20.7959 9.90332 20.4238L11.4219 18.9053C12.1007 19.0562 12.7974 19.1348 13.5 19.1348C15.2539 19.1348 16.9727 18.6536 18.4609 17.7461C19.9492 16.8384 21.1474 15.5403 21.9189 14C21.3191 12.8025 20.4606 11.7529 19.4092 10.918L20.7451 9.58203Z" fill="currentColor"/>
<path d="M13.5 7C14.7577 7 15.9664 7.20333 17.0957 7.5752L15.5771 9.09375C14.8987 8.94301 14.2022 8.86523 13.5 8.86523C11.7461 8.86523 10.0273 9.3464 8.53906 10.2539C7.05078 11.1616 5.85257 12.4597 5.08105 14C5.68067 15.1971 6.53895 16.2462 7.58984 17.0811L6.25391 18.417C4.82479 17.2421 3.69637 15.7278 3 14C4.65136 9.90267 8.72727 7 13.5 7Z" fill="currentColor"/>
<path d="M16.3633 14C16.3633 14.7426 16.0615 15.4544 15.5244 15.9795C14.9943 16.4978 14.2782 16.7904 13.5293 16.7979L16.3613 13.9658C16.3615 13.9772 16.3633 13.9886 16.3633 14Z" fill="currentColor"/>
<path d="M10.6377 14.0332C10.6376 14.0221 10.6367 14.0111 10.6367 14C10.6367 13.2574 10.9385 12.5456 11.4756 12.0205C12.0055 11.5024 12.7212 11.2089 13.4697 11.2012L10.6377 14.0332Z" fill="currentColor"/>
</g>
</svg>
