<svg width="28" height="28" viewBox="0 0 28 28" fill="none" xmlns="http://www.w3.org/2000/svg">
<g transform="translate(0.002 -0.583)">
<path d="M19.7759 18.7223C20.9795 18.7224 22.1716 18.9597 23.2837 19.4196C24.3958 19.8796 25.4069 20.5539 26.2583 21.404L25.5513 22.111L24.8452 22.819C24.1797 22.1545 23.3888 21.627 22.519 21.2673C21.6494 20.9076 20.7172 20.7224 19.7759 20.7223C18.8344 20.7223 17.9015 20.9075 17.0317 21.2673C16.162 21.627 15.372 22.1546 14.7065 22.819C13.8552 23.6691 12.8441 24.3434 11.7319 24.8034C10.6198 25.2633 9.42774 25.4997 8.22412 25.4997C7.02046 25.4996 5.82843 25.2633 4.71631 24.8034C3.60414 24.3434 2.59307 23.6691 1.7417 22.819L3.15576 21.404C3.82122 22.0683 4.61135 22.5951 5.48096 22.9548C6.35065 23.3144 7.28268 23.4996 8.22412 23.4997C9.16565 23.4997 10.0985 23.3145 10.9683 22.9548C11.8378 22.5951 12.628 22.0683 13.2935 21.404C14.1449 20.5539 15.1559 19.8796 16.2681 19.4196C17.3802 18.9597 18.5722 18.7223 19.7759 18.7223ZM19.7759 11.195C20.9795 11.195 22.1716 11.4313 23.2837 11.8913C24.3959 12.3513 25.4069 13.0256 26.2583 13.8757L24.8452 15.2907C24.1797 14.6262 23.3888 14.0996 22.519 13.7399C21.6493 13.3802 20.7173 13.195 19.7759 13.195C18.8344 13.195 17.9015 13.3802 17.0317 13.7399C16.1622 14.0996 15.3719 14.6264 14.7065 15.2907C13.8551 16.1408 12.8441 16.8151 11.7319 17.2751C10.6198 17.735 9.42778 17.9723 8.22412 17.9723C7.02046 17.9723 5.82843 17.735 4.71631 17.2751C3.60418 16.8151 2.59305 16.1407 1.7417 15.2907L3.15576 13.8757C3.82126 14.5401 4.61128 15.0677 5.48096 15.4274C6.35059 15.787 7.28277 15.9723 8.22412 15.9723C9.16565 15.9723 10.0985 15.7871 10.9683 15.4274C11.838 15.0677 12.628 14.5401 13.2935 13.8757C14.1448 13.0256 15.1559 12.3513 16.2681 11.8913C17.3802 11.4314 18.5723 11.195 19.7759 11.195ZM19.7759 3.66667C20.9795 3.6667 22.1716 3.90303 23.2837 4.36296C24.3959 4.82294 25.4069 5.49726 26.2583 6.34734L24.8452 7.76335C24.1797 7.09884 23.3888 6.57131 22.519 6.21159C21.6494 5.85195 20.7173 5.6667 19.7759 5.66667C18.8344 5.66667 17.9015 5.85188 17.0317 6.21159C16.1621 6.57131 15.372 7.09892 14.7065 7.76335C13.8552 8.61334 12.844 9.28779 11.7319 9.74773C10.6199 10.2076 9.42769 10.444 8.22412 10.444C7.02048 10.444 5.82841 10.2077 4.71631 9.74773C3.60411 9.28775 2.5931 8.61343 1.7417 7.76335L3.15576 6.34734C3.82129 7.01181 4.61122 7.53939 5.48096 7.89909C6.35062 8.25874 7.28273 8.44398 8.22412 8.44402C9.16565 8.44402 10.0985 8.25881 10.9683 7.89909C11.8379 7.53938 12.628 7.01178 13.2935 6.34734C14.1448 5.49733 15.1559 4.82291 16.2681 4.36296C17.3801 3.90311 18.5723 3.66667 19.7759 3.66667Z" fill="currentColor"/>
</g>
</svg>
