<svg width="28" height="28" viewBox="0 0 28 28" fill="none" xmlns="http://www.w3.org/2000/svg">
<g transform="translate(-0.146 -0.146)">
<path d="M18.1464 11.6464C18.1464 8.05654 15.2362 5.14639 11.6464 5.14639C8.05653 5.14639 5.14639 8.05654 5.14639 11.6464C5.14639 15.2362 8.05653 18.1464 11.6464 18.1464C15.2362 18.1464 18.1464 15.2362 18.1464 11.6464ZM20.1464 11.6464C20.1464 16.3408 16.3408 20.1464 11.6464 20.1464C6.95196 20.1464 3.14639 16.3408 3.14639 11.6464C3.14639 6.95197 6.95196 3.14639 11.6464 3.14639C16.3408 3.14639 20.1464 6.95197 20.1464 11.6464Z" fill="currentColor"/>
<path d="M24.8536 23.4396L23.4395 24.8536L16.2394 17.6534L17.6534 16.2394L24.8536 23.4396Z" fill="currentColor"/>
</g>
</svg>
